<svg width="104" height="104" viewBox="0 0 104 104" fill="none" xmlns="http://www.w3.org/2000/svg">
<g filter="url(#filter0_d_3906_1482)">
<rect x="30" y="30" width="43.498" height="43.498" rx="21.749" fill="url(#paint0_linear_3906_1482)" shape-rendering="crispEdges"/>
<rect x="30.6345" y="30.6345" width="42.229" height="42.229" rx="21.1145" stroke="#322F2F" stroke-width="1.269" shape-rendering="crispEdges"/>
<rect x="30.6345" y="30.6345" width="42.229" height="42.229" rx="21.1145" stroke="url(#paint1_linear_3906_1482)" stroke-opacity="0.2" stroke-width="1.269" shape-rendering="crispEdges"/>
<g clip-path="url(#clip0_3906_1482)">
<mask id="mask0_3906_1482" style="mask-type:luminance" maskUnits="userSpaceOnUse" x="40" y="40" width="24" height="24">
<path d="M64 40H40V64H64V40Z" fill="white"/>
</mask>
<g mask="url(#mask0_3906_1482)">
<path d="M57.4988 56.3394L56.4388 55.2794L56.9688 54.7494C58.2988 53.4194 59.0287 51.6594 59.0287 49.7795C59.0287 47.8995 58.2988 46.1395 56.9688 44.8095C54.2287 42.0695 49.7688 42.0695 47.0287 44.8095C45.6988 46.1395 44.9688 47.8995 44.9688 49.7795C44.9688 51.6594 45.6988 53.4194 47.0287 54.7494L47.5588 55.2794L46.4988 56.3394L45.9688 55.8094C44.3587 54.1994 43.4688 52.0594 43.4688 49.7795C43.4688 47.4995 44.3587 45.3595 45.9688 43.7495C49.2987 40.4195 54.7087 40.4195 58.0287 43.7495C59.6387 45.3595 60.5287 47.4995 60.5287 49.7795C60.5287 52.0594 59.6387 54.1994 58.0287 55.8094L57.4988 56.3394Z" fill="#FFD900"/>
<path d="M56.0802 57.9189H47.9102V59.4189H56.0802V57.9189Z" fill="#FFD900"/>
<path d="M54.9774 61.25H49.0273V62.75H54.9774V61.25Z" fill="#FFD900"/>
</g>
</g>
</g>
<defs>
<filter id="filter0_d_3906_1482" x="0" y="0" width="103.498" height="103.498" filterUnits="userSpaceOnUse" color-interpolation-filters="sRGB">
<feFlood flood-opacity="0" result="BackgroundImageFix"/>
<feColorMatrix in="SourceAlpha" type="matrix" values="0 0 0 0 0 0 0 0 0 0 0 0 0 0 0 0 0 0 127 0" result="hardAlpha"/>
<feOffset/>
<feGaussianBlur stdDeviation="15"/>
<feComposite in2="hardAlpha" operator="out"/>
<feColorMatrix type="matrix" values="0 0 0 0 0.956863 0 0 0 0 0.709804 0 0 0 0 0.0901961 0 0 0 0.25 0"/>
<feBlend mode="normal" in2="BackgroundImageFix" result="effect1_dropShadow_3906_1482"/>
<feBlend mode="normal" in="SourceGraphic" in2="effect1_dropShadow_3906_1482" result="shape"/>
</filter>
<linearGradient id="paint0_linear_3906_1482" x1="51.749" y1="30" x2="51.749" y2="73.498" gradientUnits="userSpaceOnUse">
<stop offset="0.490385" stop-color="#1F1F1F"/>
<stop offset="0.524038" stop-color="#242222"/>
<stop offset="1" stop-color="#2C2A2A"/>
</linearGradient>
<linearGradient id="paint1_linear_3906_1482" x1="51.749" y1="49.3608" x2="51.749" y2="57.3352" gradientUnits="userSpaceOnUse">
<stop offset="0.0913462"/>
<stop offset="1" stop-color="#666666"/>
</linearGradient>
<clipPath id="clip0_3906_1482">
<rect width="24" height="24" fill="white" transform="translate(40 40)"/>
</clipPath>
</defs>
</svg>
